<svg xmlns="http://www.w3.org/2000/svg" width="430" height="430" fill="none" viewBox="0 0 430 430"><g stroke-linecap="round" stroke-linejoin="round" stroke-miterlimit="10" stroke-width="18"><path stroke="#242424" d="m225 82 .3 48.4 30.5 21.1m34.7 153-29.6 18.1 9.4 26.3"/><path stroke="#121331" d="m55 268.1 83.8-4.5-8.9 40.9"/><path stroke="#121331" d="M189.6 113.7 225 82l55.8 29.4c10.1 5.3 16.5 15.8 16.5 27.3v39.6l48.5 9.9c8 1.6 14.3 7.9 16 15.9l13.2 64-44.4 67.3-60.1 13.5h-148L55 268.1l45.4-53.8-7.2-75.1 56.6 19.3zm25.3 185.2-92.6 50"/><path stroke="#121331" d="m297.2 178.3-71.7 32.4L212 250m162.8 18.1-48-14.9-24.5 17.4"/></g></svg>